<svg width="100%" height="100%" viewBox="0 0 120 120" aria-hidden="true" focusable="false"><path d="M20 50h80v42a6 6 0 0 1-6 6H26a6 6 0 0 1-6-6z" fill="#E8C98E" stroke="#1B1712" stroke-width="2.5" stroke-linejoin="round"></path><path d="M16 50V40q0-14 44-14t44 14v10z" fill="#D2A560" stroke="#1B1712" stroke-width="2.5" stroke-linejoin="round"></path><path d="M24 42q36-14 72 0" fill="none" stroke="#2E7355" stroke-width="2.5" stroke-linecap="round"></path><path d="M20 62h80M20 88h80" stroke="#2E7355" stroke-width="3"></path><path d="M25 75l5-5 5 5-5 5z" fill="#B3261E" stroke="#1B1712" stroke-width="1.3" stroke-linejoin="round"></path><path d="M43 75l5-5 5 5-5 5z" fill="#B3261E" stroke="#1B1712" stroke-width="1.3" stroke-linejoin="round"></path><path d="M61 75l5-5 5 5-5 5z" fill="#B3261E" stroke="#1B1712" stroke-width="1.3" stroke-linejoin="round"></path><path d="M79 75l5-5 5 5-5 5z" fill="#B3261E" stroke="#1B1712" stroke-width="1.3" stroke-linejoin="round"></path><circle cx="39" cy="75" r="2.4" fill="#2E7355"></circle><circle cx="57" cy="75" r="2.4" fill="#2E7355"></circle><circle cx="75" cy="75" r="2.4" fill="#2E7355"></circle><circle cx="93" cy="75" r="2.4" fill="#2E7355"></circle><path d="M36 50v48M84 50v48" stroke="#1B1712" stroke-width="1.2" opacity=".35"></path><path d="M53 50h14v9l-7 5-7-5z" fill="#B3261E" stroke="#1B1712" stroke-width="2" stroke-linejoin="round"></path><path d="M26 98v6M94 98v6" stroke="#1B1712" stroke-width="4" stroke-linecap="round"></path></svg>