<svg width="100%" height="100%" viewBox="0 0 120 120" aria-hidden="true" focusable="false"><path d="M58 40h28v28q14 3 20 9q6 7-1 11H58q-5 0-5-5V45q0-5 5-5z" fill="#E8D3AE" stroke="#1B1712" stroke-width="2.5" stroke-linejoin="round"></path><path d="M55 34h34v12H55z" fill="#F2EDE3" stroke="#1B1712" stroke-width="2.5" stroke-linejoin="round"></path><path d="M58 40q3-3 6 0t6 0 6 0 6 0 6 0" fill="none" stroke="#1B1712" stroke-width="1.5"></path><path d="M58 56h28M58 62h28" stroke="#B3261E" stroke-width="2.5"></path><path d="M68 71l4-4 4 4-4 4z" fill="#2E7355" stroke="#1B1712" stroke-width="1.2"></path><path d="M53 84h52" stroke="#1B1712" stroke-width="2.5"></path><path d="M12 100q0-12 12-14l14-2q8-10 22-8q12 2 16 12q9 2 9 8q0 6-9 6H18q-6 0-6-2z" fill="#8A5A33" stroke="#1B1712" stroke-width="2.5" stroke-linejoin="round"></path><path d="M36 86q14-10 30-2" fill="none" stroke="#F2EDE3" stroke-width="7" stroke-linecap="round"></path><path d="M36 86q14-10 30-2" fill="none" stroke="#1B1712" stroke-width="1.6" stroke-dasharray="1 3" stroke-linecap="round"></path><path d="M16 100h66" stroke="#E8D3AE" stroke-width="1.5" stroke-dasharray="3 3"></path><path d="M12 104h75" stroke="#1B1712" stroke-width="2.5" stroke-linecap="round"></path></svg>
